<mxfile host="65bd71144e">
    <diagram id="xuXYhLIkIfQOpS6Bkv3G" name="Page-1">
        <mxGraphModel dx="1110" dy="379" grid="1" gridSize="10" guides="1" tooltips="1" connect="1" arrows="1" fold="1" page="1" pageScale="1" pageWidth="827" pageHeight="1169" math="0" shadow="0">
            <root>
                <mxCell id="0"/>
                <mxCell id="1" parent="0"/>
                <mxCell id="22" value="" style="endArrow=none;startArrow=none;endFill=0;startFill=0;endSize=8;html=1;verticalAlign=bottom;dashed=1;labelBackgroundColor=none;dashPattern=10 10;fontSize=15;" parent="1" edge="1">
                    <mxGeometry width="160" relative="1" as="geometry">
                        <mxPoint x="66" y="130" as="sourcePoint"/>
                        <mxPoint x="70" y="1520" as="targetPoint"/>
                    </mxGeometry>
                </mxCell>
                <mxCell id="24" value="&lt;span style=&quot;background-color: rgb(255 , 255 , 255)&quot;&gt;Restaurateur&lt;br&gt;&lt;br&gt;&lt;/span&gt;" style="shape=umlActor;verticalLabelPosition=bottom;verticalAlign=top;html=1;fontColor=#000000;strokeColor=#000066;fillColor=#000066;strokeWidth=2;fontSize=15;fontStyle=1" parent="1" vertex="1">
                    <mxGeometry x="50" y="40" width="30" height="60" as="geometry"/>
                </mxCell>
                <mxCell id="32" value="" style="endArrow=none;startArrow=none;endFill=0;startFill=0;endSize=8;html=1;verticalAlign=bottom;dashed=1;labelBackgroundColor=none;dashPattern=10 10;fontSize=15;" parent="1" edge="1">
                    <mxGeometry width="160" relative="1" as="geometry">
                        <mxPoint x="514" y="120" as="sourcePoint"/>
                        <mxPoint x="514" y="1521.4285714285713" as="targetPoint"/>
                    </mxGeometry>
                </mxCell>
                <mxCell id="34" value="Base de Données" style="pointerEvents=1;shadow=0;dashed=0;html=1;aspect=fixed;labelPosition=center;verticalLabelPosition=bottom;verticalAlign=top;align=center;outlineConnect=0;shape=mxgraph.vvd.storage;fillColor=#000066;strokeColor=#000066;fontSize=15;labelBackgroundColor=#ffffff;fontStyle=1" parent="1" vertex="1">
                    <mxGeometry x="940.11" y="20" width="45" height="60" as="geometry"/>
                </mxCell>
                <mxCell id="35" value="API" style="pointerEvents=1;shadow=0;dashed=0;html=1;strokeColor=none;aspect=fixed;labelPosition=center;verticalLabelPosition=bottom;verticalAlign=top;align=center;outlineConnect=0;shape=mxgraph.vvd.guest_agent_customization;fillColor=#000066;fontSize=15;labelBackgroundColor=#ffffff;fontStyle=1" parent="1" vertex="1">
                    <mxGeometry x="482.39" y="30" width="65.22" height="60" as="geometry"/>
                </mxCell>
                <mxCell id="36" value="" style="endArrow=none;startArrow=none;endFill=0;startFill=0;endSize=8;html=1;verticalAlign=bottom;dashed=1;labelBackgroundColor=none;dashPattern=10 10;fontSize=15;" parent="1" edge="1">
                    <mxGeometry width="160" relative="1" as="geometry">
                        <mxPoint x="961" y="120" as="sourcePoint"/>
                        <mxPoint x="970" y="1520" as="targetPoint"/>
                    </mxGeometry>
                </mxCell>
                <mxCell id="49" value="" style="html=1;points=[];perimeter=orthogonalPerimeter;labelBackgroundColor=#ffffff;fontSize=15;strokeColor=#000000;strokeWidth=1;fillColor=#FFFFFF;" parent="1" vertex="1">
                    <mxGeometry x="510" y="170" width="10" height="310" as="geometry"/>
                </mxCell>
                <mxCell id="54" value="Consultation_menu&lt;br&gt;(id_restaurateur)" style="html=1;verticalAlign=bottom;endArrow=block;fontSize=15;entryX=0.714;entryY=-0.002;entryDx=0;entryDy=0;entryPerimeter=0;" parent="1" edge="1" target="49">
                    <mxGeometry y="-40" width="80" relative="1" as="geometry">
                        <mxPoint x="70" y="170" as="sourcePoint"/>
                        <mxPoint x="300" y="170" as="targetPoint"/>
                        <mxPoint as="offset"/>
                    </mxGeometry>
                </mxCell>
                <mxCell id="56" value="Requete_recherche(Restaurant)" style="html=1;verticalAlign=bottom;endArrow=block;fontSize=15;entryX=0.092;entryY=-0.024;entryDx=0;entryDy=0;entryPerimeter=0;" parent="1" target="57" edge="1">
                    <mxGeometry width="80" relative="1" as="geometry">
                        <mxPoint x="520" y="280.0000000000001" as="sourcePoint"/>
                        <mxPoint x="960" y="270" as="targetPoint"/>
                    </mxGeometry>
                </mxCell>
                <mxCell id="57" value="" style="html=1;points=[];perimeter=orthogonalPerimeter;labelBackgroundColor=#ffffff;fontSize=15;strokeColor=#000000;strokeWidth=1;fillColor=#FFFFFF;" parent="1" vertex="1">
                    <mxGeometry x="957.61" y="280" width="10" height="130" as="geometry"/>
                </mxCell>
                <mxCell id="58" value="Liste_menu" style="html=1;verticalAlign=bottom;endArrow=open;dashed=1;endSize=8;fontSize=15;exitX=0.196;exitY=1.016;exitDx=0;exitDy=0;exitPerimeter=0;" parent="1" source="57" target="49" edge="1">
                    <mxGeometry relative="1" as="geometry">
                        <mxPoint x="1250" y="220" as="sourcePoint"/>
                        <mxPoint x="1170" y="220" as="targetPoint"/>
                    </mxGeometry>
                </mxCell>
                <mxCell id="59" value="Retourne_liste" style="html=1;verticalAlign=bottom;endArrow=open;dashed=1;endSize=8;fontSize=15;" parent="1" edge="1">
                    <mxGeometry x="0.0714" y="-10" relative="1" as="geometry">
                        <mxPoint x="510" y="478" as="sourcePoint"/>
                        <mxPoint x="70" y="478" as="targetPoint"/>
                        <Array as="points"/>
                        <mxPoint as="offset"/>
                    </mxGeometry>
                </mxCell>
                <mxCell id="71" value="" style="html=1;points=[];perimeter=orthogonalPerimeter;labelBackgroundColor=#ffffff;fontSize=15;strokeColor=#000000;strokeWidth=1;fillColor=#FFFFFF;" parent="1" vertex="1">
                    <mxGeometry x="510" y="920" width="10" height="200" as="geometry"/>
                </mxCell>
                <mxCell id="73" value="Suppression_menu&lt;br style=&quot;font-size: 15px&quot;&gt;(id_restaurateur, Menu)" style="html=1;verticalAlign=bottom;endArrow=block;fontSize=15;" parent="1" edge="1">
                    <mxGeometry x="-0.2537" y="-50" width="80" relative="1" as="geometry">
                        <mxPoint x="66.66000000000008" y="920" as="sourcePoint"/>
                        <mxPoint x="510" y="920" as="targetPoint"/>
                        <mxPoint as="offset"/>
                    </mxGeometry>
                </mxCell>
                <mxCell id="74" value="" style="html=1;points=[];perimeter=orthogonalPerimeter;labelBackgroundColor=#ffffff;fontSize=15;strokeColor=#000000;strokeWidth=1;fillColor=#FFFFFF;" parent="1" vertex="1">
                    <mxGeometry x="959.61" y="1020" width="10" height="60" as="geometry"/>
                </mxCell>
                <mxCell id="76" value="Message_confirmation" style="html=1;verticalAlign=bottom;endArrow=open;dashed=1;endSize=8;fontSize=15;" parent="1" edge="1">
                    <mxGeometry x="-0.0291" y="-20" relative="1" as="geometry">
                        <mxPoint x="510" y="1120" as="sourcePoint"/>
                        <mxPoint x="70" y="1120" as="targetPoint"/>
                        <Array as="points"/>
                        <mxPoint as="offset"/>
                    </mxGeometry>
                </mxCell>
                <mxCell id="78" value="Le restaurateur&lt;br&gt;&amp;nbsp;reprend la recherche si la liste renvoyée est vide" style="shape=note2;boundedLbl=1;whiteSpace=wrap;html=1;size=25;verticalAlign=top;align=center;fontSize=15;" parent="1" vertex="1">
                    <mxGeometry x="160" y="250" width="140" height="130" as="geometry"/>
                </mxCell>
                <mxCell id="79" value="" style="endArrow=none;startArrow=none;endFill=0;startFill=0;endSize=8;html=1;verticalAlign=bottom;dashed=1;labelBackgroundColor=none;dashPattern=10 10;fontSize=15;exitX=0.5;exitY=1;exitDx=0;exitDy=0;exitPerimeter=0;" parent="1" source="78" edge="1">
                    <mxGeometry width="160" relative="1" as="geometry">
                        <mxPoint x="280" y="460" as="sourcePoint"/>
                        <mxPoint x="280" y="440" as="targetPoint"/>
                    </mxGeometry>
                </mxCell>
                <mxCell id="89" value="" style="html=1;points=[];perimeter=orthogonalPerimeter;labelBackgroundColor=#ffffff;fontSize=15;strokeColor=#000000;strokeWidth=1;fillColor=#FFFFFF;" parent="1" vertex="1">
                    <mxGeometry x="510" y="600" width="10" height="200" as="geometry"/>
                </mxCell>
                <mxCell id="90" value="Requete_ajout&lt;br style=&quot;font-size: 15px&quot;&gt;(Restaurant, Menu)" style="html=1;verticalAlign=bottom;endArrow=block;fontSize=15;" parent="1" edge="1">
                    <mxGeometry width="80" relative="1" as="geometry">
                        <mxPoint x="520" y="698.8200000000002" as="sourcePoint"/>
                        <mxPoint x="960" y="699" as="targetPoint"/>
                    </mxGeometry>
                </mxCell>
                <mxCell id="91" value="Ajout_menu&lt;br style=&quot;font-size: 15px&quot;&gt;(id_restaurateur, Menu)" style="html=1;verticalAlign=bottom;endArrow=block;fontSize=15;entryX=0;entryY=-0.002;entryDx=0;entryDy=0;entryPerimeter=0;" parent="1" edge="1" target="89">
                    <mxGeometry x="-0.1818" y="-50" width="80" relative="1" as="geometry">
                        <mxPoint x="70" y="600" as="sourcePoint"/>
                        <mxPoint x="290" y="600" as="targetPoint"/>
                        <mxPoint as="offset"/>
                    </mxGeometry>
                </mxCell>
                <mxCell id="92" value="" style="html=1;points=[];perimeter=orthogonalPerimeter;labelBackgroundColor=#ffffff;fontSize=15;strokeColor=#000000;strokeWidth=1;fillColor=#FFFFFF;" parent="1" vertex="1">
                    <mxGeometry x="957.61" y="700" width="10" height="60" as="geometry"/>
                </mxCell>
                <mxCell id="95" value="Afficher_message_confirmation" style="html=1;verticalAlign=bottom;endArrow=open;dashed=1;endSize=8;fontSize=15;" parent="1" edge="1">
                    <mxGeometry relative="1" as="geometry">
                        <mxPoint x="513.34" y="800" as="sourcePoint"/>
                        <mxPoint x="70" y="800" as="targetPoint"/>
                    </mxGeometry>
                </mxCell>
                <mxCell id="118" value="Modification (Menu)" style="html=1;verticalAlign=bottom;endArrow=block;fontSize=15;" parent="1" edge="1">
                    <mxGeometry y="-30" width="80" relative="1" as="geometry">
                        <mxPoint x="70" y="1270" as="sourcePoint"/>
                        <mxPoint x="510" y="1270" as="targetPoint"/>
                        <mxPoint as="offset"/>
                    </mxGeometry>
                </mxCell>
                <mxCell id="119" value="" style="html=1;points=[];perimeter=orthogonalPerimeter;labelBackgroundColor=#ffffff;fontSize=15;strokeColor=#000000;strokeWidth=1;fillColor=#FFFFFF;" parent="1" vertex="1">
                    <mxGeometry x="510" y="1270" width="10" height="170" as="geometry"/>
                </mxCell>
                <mxCell id="122" value="" style="html=1;points=[];perimeter=orthogonalPerimeter;labelBackgroundColor=#ffffff;fontSize=15;strokeColor=#000000;strokeWidth=1;fillColor=#FFFFFF;" parent="1" vertex="1">
                    <mxGeometry x="963.61" y="1350" width="10" height="60" as="geometry"/>
                </mxCell>
                <mxCell id="124" value="Message_confirmation" style="html=1;verticalAlign=bottom;endArrow=open;dashed=1;endSize=8;fontSize=15;" parent="1" edge="1">
                    <mxGeometry x="-0.0291" y="-20" relative="1" as="geometry">
                        <mxPoint x="510" y="1440" as="sourcePoint"/>
                        <mxPoint x="70" y="1440" as="targetPoint"/>
                        <Array as="points"/>
                        <mxPoint as="offset"/>
                    </mxGeometry>
                </mxCell>
                <mxCell id="125" value="Requete_suppression&lt;br style=&quot;font-size: 15px&quot;&gt;(Restaurant, Menu)" style="html=1;verticalAlign=bottom;endArrow=block;fontSize=15;" parent="1" edge="1">
                    <mxGeometry width="80" relative="1" as="geometry">
                        <mxPoint x="515" y="1020" as="sourcePoint"/>
                        <mxPoint x="957.61" y="1020.1800000000001" as="targetPoint"/>
                        <Array as="points">
                            <mxPoint x="670" y="1020"/>
                            <mxPoint x="860" y="1020"/>
                        </Array>
                    </mxGeometry>
                </mxCell>
                <mxCell id="126" value="Requete_modification&lt;br style=&quot;font-size: 15px&quot;&gt;(Menu)" style="html=1;verticalAlign=bottom;endArrow=block;fontSize=15;" parent="1" edge="1">
                    <mxGeometry width="80" relative="1" as="geometry">
                        <mxPoint x="520" y="1348.33" as="sourcePoint"/>
                        <mxPoint x="962.6100000000001" y="1348.51" as="targetPoint"/>
                        <Array as="points">
                            <mxPoint x="675" y="1348.33"/>
                            <mxPoint x="865" y="1348.33"/>
                        </Array>
                    </mxGeometry>
                </mxCell>
            </root>
        </mxGraphModel>
    </diagram>
</mxfile>